<svg id="Layer_1" xmlns="http://www.w3.org/2000/svg" width="76" height="60" viewBox="0 0 76 60"><style>.st0{fill:#f68b1f}</style><path class="st0" d="M64.6 38.4L60.4 33v-6l4.2-5.4c.5-.6.5-1.4.1-2.1l-3.8-6.2c-.4-.6-1.2-1-1.9-.9l-7.1.7-5.5-3L43.5 4c-.3-.7-1-1.1-1.8-1.1h-7.6c-.8 0-1.5.4-1.8 1.1l-2.9 6.1-5.5 3-6.9-.5c-.8-.1-1.6.3-1.9.9l-3.8 6.2c-.4.6-.4 1.5.1 2.1l4.2 5.4V33l-4.2 5.4c-.5.6-.5 1.4-.1 2.1l3.8 6.2c.4.6 1.2 1 1.9.9l7.1-.7 5.5 3 2.9 6.1c.3.7 1 1.1 1.8 1.1h7.6c.8 0 1.5-.4 1.8-1.1l2.9-6.1 5.5-3 7.1.7c.8.1 1.6-.3 1.9-.9l3.8-6.2c.2-.7.2-1.5-.3-2.1zm-6.5 5.1l-6.4-.5c-.4 0-.8 0-1.2.2l-6.6 3.6c-.4.2-.7.5-.8.9l-2.6 5.5h-5l-2.6-5.5c-.2-.4-.5-.7-.8-.9l-6.6-3.6c-.4-.2-.8-.3-1.2-.2l-6.4.7-2.5-4.1 3.8-4.9c.3-.3.4-.7.4-1.1v-7.2c0-.4-.1-.8-.4-1.1l-3.8-4.9 2.5-4.1 6.4.7c.4 0 .8 0 1.2-.2l6.6-3.6c.4-.2.7-.5.8-.9l2.6-5.5h5l2.6 5.5c.2.4.5.7.8.9l6.6 3.6c.4.2.8.3 1.2.2l6.4-.7 2.5 4.1-3.8 4.9c-.3.3-.4.7-.4 1.1v7.2c0 .4.1.8.4 1.1l3.8 4.9-2.5 3.9z"/><path class="st0" d="M38 28.1c-1.5 0-2.7-1.1-2.7-2.5 0-3.3 5.4-3.3 5.4 0 0 1 .9 1.9 2 1.9s2-.8 2-1.9c0-2.8-2-5.2-4.7-6v-.9c0-1-.9-1.9-2-1.9s-2 .8-2 1.9v.9c-2.7.8-4.7 3.2-4.7 6 0 3.5 3 6.3 6.7 6.3 1.5 0 2.7 1.1 2.7 2.5 0 3.3-5.4 3.3-5.4 0 0-1-.9-1.9-2-1.9s-2 .8-2 1.9c0 2.8 2 5.2 4.7 6v.9c0 1 .9 1.9 2 1.9s2-.8 2-1.9v-.9c2.7-.8 4.7-3.2 4.7-6 0-3.5-3-6.3-6.7-6.3z"/></svg>