<svg id="Layer_1" xmlns="http://www.w3.org/2000/svg" width="76" height="60" viewBox="0 0 76 60"><style>.st0{fill:#f68b1f}</style><path class="st0" d="M66.2 33.1h-1v-9.6c0-.6-.3-1.1-.8-1.5L39.2 3.4c-.7-.5-1.6-.5-2.3 0l-8 6V5c0-1-.8-1.9-1.9-1.9h-9.7c-1 0-1.9.8-1.9 1.9v14.3L11.7 22c-.5.4-.8.9-.8 1.5v9.6h-1c-1 0-1.9.8-1.9 1.9 0 1 .8 1.9 1.9 1.9h1v18.2c0 1 .8 1.9 1.9 1.9h50.4c1 0 1.9-.8 1.9-1.9V36.8h1c1 0 1.9-.8 1.9-1.9.1-1-.7-1.8-1.8-1.8zM54 53.2h-2v-5h2v5zm3.8 0v-6.9c0-1-.8-1.9-1.9-1.9h-5.8c-1 0-1.9.8-1.9 1.9v6.9H14.8V36.8h46.7v16.4h-3.7zm-43-20.1v-8.7L38.1 7.2l23.4 17.3v8.7H14.8v-.1zm4.5-26.2h5.9v5.2l-5.9 4.4V6.9z"/><path class="st0" d="M28.5 44.4h-4.6c-1 0-1.9.8-1.9 1.9 0 1 .8 1.9 1.9 1.9h4.6c1 0 1.9-.8 1.9-1.9 0-1-.9-1.9-1.9-1.9zm0-19.8h-4.6c-1 0-1.9.8-1.9 1.9 0 1 .8 1.9 1.9 1.9h4.6c1 0 1.9-.8 1.9-1.9 0-1.1-.9-1.9-1.9-1.9zm11.9 0h-4.6c-1 0-1.9.8-1.9 1.9 0 1 .8 1.9 1.9 1.9h4.6c1 0 1.9-.8 1.9-1.9s-.9-1.9-1.9-1.9zm12 0h-4.6c-1 0-1.9.8-1.9 1.9 0 1 .8 1.9 1.9 1.9h4.6c1 0 1.9-.8 1.9-1.9s-.9-1.9-1.9-1.9z"/></svg>