<svg id="Layer_1" xmlns="http://www.w3.org/2000/svg" width="76" height="60" viewBox="0 0 76 60"><style>.st0{fill:#f68b1f}</style><path class="st0" d="M58.5 21.6h-4l-11-7.8c.8-3-.9-6.1-3.6-7.1V3c0-1.1-.9-2-1.9-2-1.1 0-1.9.9-1.9 2v3.7c-2.8 1-4.4 4.1-3.6 7.1l-11 7.8h-4c-2.5 0-4.5 2-4.5 4.6v26.3c0 2.5 2 4.6 4.5 4.6h41c2.5 0 4.5-2 4.5-4.6V26.1c0-2.5-2-4.5-4.5-4.5zM38 10.2c1.1 0 1.9.9 1.9 2s-.8 2-1.9 2c-1.1 0-1.9-.9-1.9-2 0-1 .8-2 1.9-2zM34.6 17c2 1.5 4.8 1.5 6.8 0l6.4 4.5H28.2l6.4-4.5zm23.9 36h-41c-.4 0-.6-.3-.6-.6V26.1c0-.4.3-.6.6-.6h41c.4 0 .6.3.6.6v26.3c.1.3-.2.6-.6.6z"/><path class="st0" d="M25.8 31.8c-1.1 0-1.9.9-1.9 2v10.9c0 1.1.9 2 1.9 2 1.1 0 1.9-.9 1.9-2v-11c0-1.1-.8-1.9-1.9-1.9zm12.2 0c-1.1 0-1.9.9-1.9 2v10.9c0 1.1.9 2 1.9 2 1.1 0 1.9-.9 1.9-2v-11c0-1.1-.8-1.9-1.9-1.9zm12.2 0c-1.1 0-1.9.9-1.9 2v10.9c0 1.1.9 2 1.9 2s1.9-.9 1.9-2v-11c0-1.1-.9-1.9-1.9-1.9z"/></svg>