<svg id="Layer_1" xmlns="http://www.w3.org/2000/svg" width="76" height="60" viewBox="0 0 76 60"><style>.st0{fill:#f68b1f}</style><path class="st0" d="M38 3C23.1 3 11 15.1 11 30s12.1 27 27 27c7.2 0 14-2.8 19.1-7.9S65 37.2 65 30C65 15.1 52.9 3 38 3zm0 50.2c-12.8 0-23.2-10.4-23.2-23.2C14.8 17.2 25.2 6.8 38 6.8S61.2 17.2 61.2 30 50.8 53.2 38 53.2z"/><path class="st0" d="M47.9 20.1c-.7-.7-1.9-.7-2.7 0L28.1 37.3c-.7.7-.7 1.9 0 2.7.7.7 1.9.7 2.7 0L48 22.8c.7-.8.7-2-.1-2.7zM46 34.8c1.8 0 3.3 1.5 3.3 3.3s-1.5 3.3-3.3 3.3-3.3-1.5-3.3-3.3 1.5-3.3 3.3-3.3zM30 18.7c1.8 0 3.3 1.5 3.3 3.3s-1.5 3.3-3.3 3.3-3.3-1.5-3.3-3.3 1.5-3.3 3.3-3.3z"/></svg>