<svg id="Layer_1" xmlns="http://www.w3.org/2000/svg" width="76" height="60" viewBox="0 0 76 60"><style>.st0{fill:#f68b1f}</style><path class="st0" d="M19.9 16.6h24.4c1 0 1.7-.8 1.7-1.7s-.8-1.7-1.7-1.7H19.9c-1 0-1.7.8-1.7 1.7 0 .9.8 1.7 1.7 1.7zm0 5.8h24.4c1 0 1.7-.8 1.7-1.7 0-.9-.8-1.7-1.7-1.7H19.9c-1 0-1.7.8-1.7 1.7 0 .9.8 1.7 1.7 1.7zm13 19.7h-13c-1 0-1.7.8-1.7 1.7 0 .9.8 1.7 1.7 1.7h12.9c1 0 1.7-.8 1.7-1.7.1-1-.7-1.7-1.6-1.7z"/><path class="st0" d="M69.2 4.2l-5.1-3c-.5-.2-1-.3-1.4-.2-.4.1-.8.4-1.1.8l-9 14.3V6c0-.9-.8-1.7-1.7-1.7H11.7c-1 0-1.7.8-1.7 1.7v47.3c0 .9.8 1.7 1.7 1.7h39.2c1 0 1.7-.8 1.7-1.7V33.9L69.8 6.5c.4-.8.2-1.8-.6-2.3zM46.6 37.1l-2.9 2.3.8-3.5L61.2 9l2.1 1.2-16.7 26.9zM65.1 7.4L63 6.1l.7-1.1 2.1 1.2-.7 1.2zM13.5 51.6v-44h35.7v14.1l-3.1 4.9v-.2c0-.9-.8-1.7-1.7-1.7H19.9c-1 0-1.7.8-1.7 1.7 0 .9.8 1.7 1.7 1.7h24.4c.4 0 .7-.1 1-.3l-1.7 2.7H19.9c-1 0-1.7.8-1.7 1.7 0 .9.8 1.7 1.7 1.7h21.6l-.3.5c-.1.2-.2.3-.2.5l-.3 1.4H19.9c-1 0-1.7.8-1.7 1.7s.8 1.7 1.7 1.7H40l-.8 3.8c-.1.7.2 1.4.8 1.8.3.2.6.2.9.2.4 0 .8-.1 1.1-.4l7-5.6.1-.1v12.3l-35.6-.1z"/></svg>