<svg id="Layer_1" xmlns="http://www.w3.org/2000/svg" width="76" height="60" viewBox="0 0 76 60"><style>.st0{fill:#f68b1f}</style><path class="st0" d="M75.8 35.4l-4.9-9c-1.4-2.5-4-4.1-6.8-4.1H53.9V6.9c0-1-.8-1.9-1.8-1.9H1.8C.8 5 0 5.8 0 6.9v41.6c0 1 .8 1.9 1.8 1.9h5.5c.8 2.6 3.3 4.6 6.2 4.6s5.4-2 6.2-4.7H56c.8 2.7 3.3 4.7 6.2 4.7 2.9 0 5.4-2 6.2-4.7h5.8c1 0 1.8-.8 1.8-1.9V36.3c0-.3-.1-.6-.2-.9zM3.7 8.7h46.5v37.8H19.7c-.8-2.7-3.3-4.7-6.2-4.7s-5.4 2-6.2 4.7H3.7V8.7zm12.6 39.7c0 1.6-1.2 2.8-2.8 2.8-1.5 0-2.8-1.3-2.8-2.8 0-1.6 1.2-2.8 2.8-2.8 1.6 0 2.8 1.3 2.8 2.8zm48.7 0c0 1.6-1.2 2.8-2.8 2.8-1.5 0-2.8-1.3-2.8-2.8 0-1.6 1.2-2.8 2.8-2.8 1.5 0 2.8 1.3 2.8 2.8zm7.3-1.8h-3.9c-.8-2.7-3.3-4.7-6.2-4.7s-5.4 2-6.2 4.7h-2.1V26.1h10.2c1.5 0 2.9.8 3.6 2.2l4.6 8.6v9.7z"/><path class="st0" d="M22.6 24.7h13.1l-2.5 2.5c-.7.7-.7 1.9 0 2.6.4.4.8.5 1.3.5s.9-.2 1.3-.5l5.1-5.2c1-1 1-2.7 0-3.7l-5.1-5.2c-.7-.7-1.9-.7-2.6 0-.7.7-.7 1.9 0 2.6l2.5 2.5H22.6c-1 0-1.8.8-1.8 1.9 0 1.2.8 2 1.8 2zM18 39.5c.4.4.8.5 1.3.5s.9-.2 1.3-.5c.7-.7.7-1.9 0-2.6l-2.5-2.5h13.1c1 0 1.8-.8 1.8-1.9 0-1-.8-1.9-1.8-1.9h-13l2.5-2.5c.7-.7.7-1.9 0-2.6s-1.9-.7-2.6 0L13 30.7c-.5.5-.7 1.1-.7 1.8s.3 1.3.7 1.8l5 5.2z"/></svg>